<?xml version="1.0" encoding="utf-8"?>
<!-- Generator: Adobe Illustrator 24.2.1, SVG Export Plug-In . SVG Version: 6.00 Build 0)  -->
<svg version="1.1" id="Layer_1" xmlns="http://www.w3.org/2000/svg" xmlns:xlink="http://www.w3.org/1999/xlink" x="0px" y="0px"
	 viewBox="0 0 2463.8 2291.6" style="enable-background:new 0 0 2463.8 2291.6;" xml:space="preserve">
<style type="text/css">
	.st0{fill:#40B549;stroke:#231F20;stroke-width:3;}
	.st1{fill:#40B549;stroke:#231F20;stroke-width:3.0001;stroke-miterlimit:4.0001;}
</style>
<image style="overflow:visible;opacity:0.5;enable-background:new    ;" width="5280" height="4080" xlink:href="A7B26BEC.png"  transform="matrix(0.6097 0 0 0.6097 -374.5313 -94.5)">
</image>
<rect id="F1" x="2134.9" y="1435.1" class="st0" width="261.9" height="790.2"/>
<rect id="EF1" x="2134.9" y="921.6" class="st0" width="261.9" height="513.5"/>
<polygon id="E2" class="st0" points="2396.8,921.6 2134.9,921.3 2134.9,159.5 2212,159.5 2213.7,78.7 2396.8,78.7 "/>
<polygon id="D2B" class="st0" points="1318.3,591.2 647.4,592.5 520.4,629.7 422.9,681.7 421.6,744.6 227.3,698.3 226.7,906.1 
	68.2,838.2 68.2,525.1 309.8,524.5 308.8,568.8 350.5,631.6 406.3,631.6 406.3,441.1 659,441.1 664.1,468.7 1333.7,468.7 "/>
<polygon id="D2A" class="st0" points="68.2,1504.4 227.1,1435.1 226.7,1470.6 269,1452.6 226.6,1323.1 229.9,1037 269,907.4 
	226.2,889.7 226.7,906.1 68.2,838.2 "/>
<polygon id="D1pb" class="st0" points="1199.5,591.4 1199.5,628.6 1082.3,631.2 1082.3,653.4 901,652.6 901.9,630.3 651.3,632 
	587.1,645.7 588.9,673.6 542.7,682.5 421.6,744.6 422.9,681.7 520.4,629.7 647.4,592.5 "/>
<path id="D1B" class="st0" d="M461.4,441.1h-55.2v25v29.5v23.7V543H310l-0.3-18.6l-241.5,0.7v-243h57.7l-0.2-50.8l57.1-0.5v-35.3
	c0,0,147.5,0,147.7,0c0.3,0,0,96.9,0,96.9l93-1.3l0.6-58.4h37.2L461.4,441.1L461.4,441.1z"/>
<path id="D1A" class="st0" d="M1333.7,468.7H664.1l-5.1-27.6c0,0-160.3,0-197.6,0c0-69.5,0-139,0-208.5h902.2L1333.7,468.7z"/>
<polygon id="C2" class="st0" points="421.7,1684.4 519.2,1729.7 641.9,1768.6 1309.8,1769.5 1324.3,1890.9 629,1891.8 413.5,1836.2 
	413.5,1732.3 349.8,1731.6 306,1777 306.2,1815.7 413.5,1816.9 413.5,1836.2 68.2,1836.2 68.2,1504.4 227.1,1435.1 222.8,1663.4 
	424,1615.6 "/>
<polygon id="C1pb" class="st0" points="421.7,1684.4 519.2,1729.7 641.9,1768.6 1172.1,1769.3 1172.1,1728.4 651.3,1728.4 
	585.4,1707.9 588.9,1689.9 543.5,1675.4 424,1615.6 "/>
<polygon id="C1" class="st0" points="1341.4,2128.7 136.5,2128.7 136.4,2063.6 69.6,2063.7 68.2,1836.2 413.5,1836.2 629,1891.8 
	1324.3,1890.9 1341.4,2025.2 "/>
<polygon id="B3" class="st0" points="1964,1686.5 2057.2,1687.4 2057.2,1719.9 2099.9,1719 2099.2,1684 2115.9,1684.8 2115,1452.8 
	2134.9,1453 2134.9,2128.7 1870.8,2128.7 1870,1641.2 1964.9,1640.3 "/>
<polygon id="B2" class="st0" points="1324.3,1890.9 1571.5,1833.6 1572.3,1731.8 1663,1731.8 1663,1766.9 1686.9,1767.8 
	1685.2,1814.8 1571.6,1815.7 1571.5,1833.6 1870.3,1833.6 1870,1641.2 1964.9,1640.3 1966.6,1364.7 1929,1365.4 1929.8,1281.1 
	1799,1281.1 1796.4,1327.3 1762.8,1463.5 1693.8,1586 1638.2,1633.5 1562.1,1619 1561.2,1677.1 1463.7,1732.7 1333.7,1769.5 
	1309.8,1769.5 "/>
<polygon id="B1pb" class="st0" points="1172.1,1728.4 1331.2,1728.4 1397.9,1710.5 1392.5,1688.5 1440.6,1676.3 1562.1,1619 
	1561.2,1677.1 1463.7,1732.7 1333.7,1769.5 1172.1,1769.3 "/>
<polygon id="B1" class="st0" points="1870.8,2128.7 1341.4,2128.7 1341.4,2025.2 1324.3,1890.9 1571.5,1833.6 1870.3,1833.6 "/>
<polygon id="A3" class="st0" points="1463.3,627.8 1333.7,591.2 1318.3,591.2 1333.7,468.7 1351.7,468.7 1572.3,519.2 1572.3,691.3 
	"/>
<polygon id="A2" class="st0" points="1846.9,920.3 1966.6,921.1 1966.6,975 1929,974.1 1929.8,1281.1 1799,1281.1 1797.3,1029.7 
	1760.5,893.7 1691.2,774 1640.8,724.4 1572.3,739.8 1572.3,716.7 1621.5,717.6 1621.5,691.3 1572.3,691.3 1572.3,626.9 
	1663.8,625.2 1663,591.9 1686.1,592.7 1686.1,543.1 1572.3,543.1 1572.3,519.2 1846.9,519.2 "/>
<polygon id="AB1" class="st0" points="1929,1365.4 1966.6,1364.7 1966.6,1334 2093.2,1314.1 2093.2,1341 2115.6,1339.7 2115,1452.8 
	2134.9,1453 2134.9,921.6 2115,921.6 2114.3,1019 2097,1018.4 2097,1044.7 1966.6,1022.2 1966.6,975 1929,974.1 "/>
<polygon id="A1pb" class="st0" points="1318.3,591.2 1199.5,591.4 1199.5,628.6 1331.2,628.6 1450.5,663.1 1572.3,733.6 
	1572.3,691.3 1463.3,627.8 1333.7,591.2 "/>
<polygon id="A1B" class="st0" points="1966.6,815.9 1981.8,815.9 1981.8,672.9 2057.2,672.5 2057.2,640.2 2100.2,640.4 
	2099.6,671.1 2115.9,671.1 2115,921.6 2134.9,921.3 2134.9,159.5 2092.5,160.2 2091.6,78.7 2046.1,78.7 2045.7,114.3 2002.7,114.3 
	2002.5,160 1909.3,160 1909.3,409.7 1846.9,408.8 1846.9,920.3 1966.6,921.1 "/>
<polygon id="A1A" class="st0" points="1846.9,519.2 1572.3,519.2 1351.7,468.7 1333.7,468.7 1363.7,232.7 1555.2,232.7 1556.9,78.7 
	1837.5,78.7 1822.1,153.1 1865.7,160 1909.3,160 1909.3,409.7 1846.9,408.8 "/>
<polygon id="AB1_1_" class="st1" points="1709.8,1557.5 1656.5,1524.4 1669.7,1503.6 1722.3,1536.7 1762.8,1463.5 1781.4,1388 
	1725.8,1372.9 1732.3,1348.8 1787.3,1364.2 1796.4,1327.3 1799,1281.1 1798.4,1188.3 1738.1,1188.3 1737.8,1163.7 1798.2,1163.7 
	1797.3,1029.7 1788.2,996 1729.7,1011.3 1723.4,986.1 1781.5,971.2 1760.5,893.7 1720.6,824.8 1665,856.8 1652.9,836.3 
	1708.7,804.2 1721.1,825.1 1760.9,894.2 1781.8,971.6 1797.6,1030 1799.2,1281.7 1796.6,1327.9 1762.9,1464 1722.6,1537.1 "/>
</svg>
