<?xml version="1.0" encoding="utf-8"?>
<!-- Generator: Adobe Illustrator 25.0.0, SVG Export Plug-In . SVG Version: 6.00 Build 0)  -->
<svg version="1.1" id="A-FLOR" xmlns="http://www.w3.org/2000/svg" xmlns:xlink="http://www.w3.org/1999/xlink" x="0px" y="0px"
	 viewBox="0 0 7398 6290.4" style="enable-background:new 0 0 7398 6290.4;" xml:space="preserve">
<style type="text/css">
	.st0{fill-rule:evenodd;clip-rule:evenodd;}
	.st1{fill-rule:evenodd;clip-rule:evenodd;fill:#D40000;}
	.st2{fill:#FFFFFF;}
	.st3{fill:#D40000;}
</style>
<image style="overflow:visible;enable-background:new    ;" width="5760" height="4320" xlink:href="7F53103E.png"  transform="matrix(1.9982 0 0 1.9982 -1946.6875 -882.5)">
</image>
<polygon id="_x30_3.03.01" class="st0" points="3270.8,1617.8 3270.8,1574.4 3295.8,1574.4 3295.8,1591 3356.3,1591 3356.3,1574.4 
	3362.3,1574.4 3362.3,1536.9 3355.8,1536.9 3355.8,1307.5 3295.8,1307.5 3295.8,1325.9 3270.8,1325.9 3270.8,1299.4 3240.8,1299.4 
	3240.8,1617.8 "/>
<polygon id="_x30_3.03.02" class="st0" points="3592.4,1612.9 3592.4,1520.3 3639.3,1520.3 3639.3,1454.3 3732.8,1454.3 
	3732.8,1305.1 3656.8,1305.1 3656.8,1341.1 3487.8,1341.1 3487.8,1541 3480.5,1541 3480.5,1341.1 3456.5,1341.1 3456.5,1308.1 
	3362.5,1308.1 3362.5,1612.9 3443.2,1612.9 "/>
<polygon id="_x30_3.04.02" class="st0" points="3704.2,1680.1 3704.2,1580.4 3817.6,1580.4 3846.5,1472.3 3838.4,1472.3 
	3838.4,1454.3 3851.4,1454.3 3926.2,1175 3793.9,1139.5 3766.3,1235.6 3750.8,1235.6 3750.8,1454.3 3777.7,1454.3 3777.7,1470.1 
	3646.5,1470.1 3646.5,1620.1 3363,1620.1 3363,1624.6 3355.2,1624.6 3355.2,1662.1 3363,1662.1 3363,1680.1 3443.2,1680.1 "/>
<polygon id="_x30_3.04.03" class="st0" points="3718,1712 3756,1712 3756,1706 3794.9,1706 3826.6,1587.6 3711.4,1587.6 
	3711.4,1706 3718,1706 "/>
<polygon id="_x30_3.00.03" class="st0" points="1158.8,2038.1 1508.4,1869.8 1608.2,1828.4 1874.2,1828.4 1874.2,1708.4 
	1520.2,1708.4 1406.9,1285.4 1406.9,1210 1406.9,1144.4 1323.3,1146.1 1322.1,916.6 1406.9,916.6 1406.9,843 2164,843 2164,857.4 
	2244.5,857.4 2244.5,843 3066.5,843 3066.5,857.4 3150.5,857.4 3150.5,843 3396.5,843 3396.5,857.4 3486.5,857.4 3941.3,1164.2 
	3925.3,1224.1 3923,1228.1 3758.4,1842.4 3904.1,1881.4 3904.1,1882.1 3907.1,1882.1 3911.8,1864.8 4266.8,1864.8 4266.8,1799.4 
	4097.3,1799.4 4097.3,1290.1 5089.3,1290.1 5089.3,1224.1 5358.6,1068.6 5358.6,1053.3 5530.1,1053.3 5530.1,864 5469.5,864 
	5469.5,992.6 5358.6,992.6 5358.6,839.4 5420.1,839.4 5420.1,675.9 5498.1,675.9 5498.1,598 5358.6,598 5358.6,769.4 5299.3,769.4 
	5299.3,873.5 5199,873.5 5199,857.4 5103.3,857.4 5103.3,873.5 5075.1,873.5 5075.1,843.5 4949.3,843.5 4949.3,873.5 4637.3,873.5 
	4637.3,843.5 4517.3,843.5 4517.3,873.5 4485.3,873.5 4485.3,591.4 3571.3,591.4 3571.3,607.6 1743.3,607.6 1743.3,591.4 
	1085.3,591.4 1085.3,773.4 833.1,773.4 833.1,1008.8 797.3,1008.8 797.3,971.4 714.8,971.4 714.8,1449 811.5,1449 811.5,1287 
	1231.5,1287 1231.5,1453 1197.5,1453 1197.5,1753 1042.9,1842.2 1042.9,2007 "/>
<polygon id="_x30_3.05.08" class="st0" points="5063.8,843.5 5063.8,837.4 5071.5,837.4 5071.5,591.4 4516,591.4 4516,837.4 
	4521.8,837.4 4521.8,843.5 4600.8,843.5 4600.8,837.4 4986.8,837.4 4986.8,843.5 "/>
<polygon id="_x30_3.05.04" class="st0" points="5156.4,857.4 5156.4,849.4 5198.4,849.4 5198.4,591.4 5076.9,591.4 5076.9,838 
	5106.9,838 5106.9,849.4 5120.4,849.4 5120.4,857.4 "/>
<polygon id="_x30_3.05.05" class="st0" points="5311.3,762.4 5350.8,762.4 5350.8,756.4 5358.6,756.4 5358.6,717.4 5350.8,717.4 
	5350.8,591.4 5205,591.4 5205,762.4 "/>
<polygon id="_x30_3.06.03" class="st0" points="5285.3,873.5 5285.3,865.1 5292.6,865.1 5292.6,768.8 5206.3,768.8 5206.3,865.1 
	5249.1,865.1 5249.1,873.5 "/>
<polygon id="_x30_3.06.04" class="st0" points="5857.6,841.8 5857.6,618.3 5512.8,618.3 5512.8,679.9 5432.9,679.9 5432.9,841.8 
	5610,841.8 5610,780.4 5616,780.4 5616,841.8 5628.2,841.8 "/>
<polygon id="_x30_3.06.06" class="st0" points="5463.5,986 5463.5,875.4 5366.5,875.4 5366.5,944 5358.6,944 5358.6,980.1 
	5366.5,980.1 5366.5,986 "/>
<polygon id="_x30_3.06.05" class="st0" points="5852.1,1046.8 5852.1,875.4 5752.1,875.4 5752.1,937.1 5743.9,937.1 5743.9,875.4 
	5585.3,875.4 5585.3,896.1 5530.1,896.1 5530.1,962 5548.1,962 5548.1,1046.8 5622.7,1046.8 "/>
<polygon id="_x30_3.06.12" class="st0" points="5837.3,1683.8 5837.3,1539.8 5835.6,1543.4 5835.6,1105.4 5796.6,1105.4 
	5796.6,1068.6 5358.6,1068.6 5232.5,1141.4 5232.5,1543.4 5273.3,1543.4 5273.3,1645 5377.3,1645 5393.3,1683.8 "/>
<path id="_x30_3.10.01" class="st0" d="M5298.8,5911.4h60v-380.9h178.5v-61h-460.5v-768.1h758.8V3454.3h-48l-213,32l-5.5,0.6
	l-5.5,0.1l-5.5-0.3l-5.5-0.8l-5.4-1.2l-5.3-1.7l-5.1-2.1l-4.9-2.5l-4.7-2.9l-4.4-3.3l-4.1-3.6l-3.8-4l-3.5-4.3l-3.1-4.5l-2.7-4.8
	l-2.3-5l-1.9-5.2l-1.5-5.3l-1-5.4l-25.4-168.9l25.4-168.9l1-5.4l1.5-5.3l1.9-5.2l2.3-5l2.7-4.8l3.1-4.5l3.5-4.3l3.8-4l4.1-3.6
	l4.4-3.3l4.7-2.9l4.9-2.5l5.1-2.1l5.3-1.7l5.4-1.2l5.5-0.8l5.5-0.3l5.5,0.1l5.5,0.6l245.9,36.9l2.8-2.8h30V2103h-337v-90.7h-64.6
	v151.6l-219.2-62.8v-959.9l-143.2,82.7v66h-310.4l-8.5,8.5h-53.6v408l-66,159.4v95.9L4268,2051v-186h-356.8l-4.6,17.1l-88.3-23.7
	l-7.9,7.9l452.1,261l89.2,89.2l252,436.5l50.5,122v116.3h84.5v228h-66.5v118.1h-36.7v505.2l-34,127l-156,270.2l-136.9,219
	l-52.7,40.4l-31.2,18l42.6,55.5l378,88v96.1h67.3v990.6h230.6v29.5h355.6v45.2V5911.4L5298.8,5911.4z M4817.3,4578.5h-26.7v-43.4
	h-77.9v-33.4l-283.7-66l105.8-105.8l212.2-367.6h28.9l148.8,39.9l136.8,79l-19.3,71.9l-159,275.4v150h-13.9v-23.9h-52.1v23.9H4817.3
	z M4857.8,2522.4l-67.9-67.9l-76.4,44.1l-177-306.5L4432,2087.5l286-66.6v-32.1h24.3v-1h45v7h54.4v120.7h27v27.5l8.9,38.3l52.4-40.2
	l159.2,275.7l-113,51.5L4857.8,2522.4L4857.8,2522.4z"/>
<polygon id="_x30_3.05.01" class="st0" points="4266.8,1799.4 4266.8,1434.4 4414.5,1434.4 4414.5,1398.8 4420.6,1398.8 
	4420.6,1362.6 4414.5,1362.6 4414.5,1298.6 4266.8,1298.6 4266.8,1290.1 4097.3,1290.1 4097.3,1799.4 "/>
<polygon id="_x30_3.05.02" class="st0" points="4688.6,1443.9 4710.1,1443.9 4710.1,1298 4574.6,1298 4574.6,1290.1 4532.4,1290.1 
	4532.4,1298 4441.5,1298 4441.5,1326.6 4420.6,1326.6 4420.6,1434.4 4602.1,1434.4 4602.1,1443.9 "/>
<polygon id="_x30_3.06.02" class="st0" points="4399.1,1883.4 4399.1,1874.5 4401.2,1874.5 4401.2,1868.5 4414.9,1868.5 
	4414.9,1866 4650.7,1866 4714.7,1711.6 4572.1,1711.6 4572.1,1746.4 4534.3,1746.4 4534.3,1718.3 4511.3,1718.3 4511.3,1703.4 
	4463.3,1703.4 4463.3,1718.3 4391.7,1718.3 4391.7,1703.4 4339.3,1703.4 4339.3,1718.3 4320.8,1718.3 4320.8,1746.4 4266.8,1746.4 
	4266.8,1864.8 4268.5,1864.8 4268.5,1866 4320.8,1866 4320.8,1868.5 4348.8,1868.5 4348.8,1874.5 4350.9,1874.5 4350.9,1883.4 
	4377.2,1883.4 "/>
<polygon id="_x30_3.06.01" class="st0" points="4463.5,1996.8 4643.5,1954.9 4643.5,1913.9 4650.7,1913.9 4650.7,1880.5 
	4643.5,1880.5 4643.5,1875.1 4463.5,1875.1 "/>
<polygon id="_x30_3.07.04" class="st0" points="5853,1807.1 5853,1722.5 5837.3,1722.5 5837.3,1686.5 5441.3,1686.5 5441.3,1765.6 
	5615.3,1765.6 5615.3,1807.1 "/>
<polygon id="_x30_3.07.05" class="st0" points="5853,2095.8 5853,1813.8 5608.6,1813.8 5608.6,1772.1 5528.3,1772.1 5528.3,1765.6 
	5441.3,1765.6 5441.3,1803.9 5452.5,1803.9 5452.5,1838.9 5437.5,1838.9 5437.5,1976.6 5452.5,1976.6 5452.5,2006 5468.3,2006 
	5468.3,2012 5516.3,2012 5510.3,2006 5516.3,2006 5516.3,1899.4 5726.8,1899.4 5726.8,1906.6 5523.5,1906.6 5523.5,2046.5 
	5516.3,2046.5 5516.3,2089.9 5523.5,2089.9 5523.5,2095.8 "/>
<polygon id="_x30_3.07.03" class="st0" points="5445.3,2142.2 5445.3,2012.1 5416.5,2012.1 5416.5,1992.4 5391.7,1992.4 
	5391.7,1983.9 5269.9,1983.9 5269.9,1992.4 5239.9,1992.4 5239.9,2096.7 5256.8,2101.6 5256.8,2108.2 5372.1,2141.4 5377.3,2136.3 
	5397.6,2142.2 "/>
<polygon id="_x30_3.10.02" class="st0" points="5563.7,3487 5569.2,3486.9 5574.7,3486.3 5787.7,3454.3 5821.9,3454.3 
	5821.9,3449.2 5826.9,3449.2 5826.9,3316.3 5631.1,3345.7 5636.1,3393.4 5624.3,3395.2 5596.7,3261.4 5626.5,3127.4 5635.5,3129.4 
	5628.5,3175.9 5834.7,3206.8 5834.7,3162.2 5824.9,3159.6 5824.9,3074 5574.7,3036.5 5569.2,3035.9 5563.7,3035.7 5558.2,3036.1 
	5552.7,3036.8 5547.4,3038 5542.1,3039.7 5537,3041.8 5532.1,3044.3 5527.4,3047.2 5523,3050.5 5518.9,3054.1 5515,3058 
	5511.5,3062.3 5508.4,3066.8 5505.7,3071.6 5503.3,3076.6 5501.4,3081.8 5499.9,3087.1 5498.9,3092.5 5473.5,3261.4 5498.9,3430.3 
	5499.9,3435.7 5501.4,3441 5503.3,3446.2 5505.7,3451.1 5508.4,3455.9 5511.5,3460.5 5515,3464.7 5518.9,3468.7 5523,3472.3 
	5527.4,3475.6 5532.1,3478.5 5537,3481 5542.1,3483.1 5547.4,3484.7 5552.7,3485.9 5558.2,3486.7 "/>
<polygon id="_x30_3.13.01" class="st0" points="4838.8,4462.4 4838.8,4456.4 4839,4456.4 4839,4370.9 4838.8,4370.9 4838.8,4364.6 
	4677.1,4271.3 4698.1,4234.9 4882.5,4341.4 4882.5,4431.4 5041.5,4156 5061.5,4081.2 4924.7,4002.3 4774.9,3964.1 4774.9,3969.6 
	4751.1,3969.6 4721.7,4020.6 4792.8,4061.7 4830.1,3997.1 4835.3,4000.1 4793.7,4072.1 4717.4,4028 4583,4260.9 4613.4,4278.4 
	4590.1,4318.8 4688.6,4375.7 "/>
<polygon id="_x30_3.14.04" class="st0" points="5205.1,5469.5 5246.6,5469.5 5246.6,5461.6 5560.3,5461.6 5560.3,5290.6 
	5198.5,5290.6 5198.5,5461.6 5205.1,5461.6 "/>
<polygon id="_x30_3.14.08" class="st0" points="5464.1,5647.4 5464.1,5537.1 5366.5,5537.1 5366.5,5541.9 5358.9,5541.9 
	5358.9,5580.9 5366.5,5580.9 5366.5,5647.4 "/>
<polygon id="_x30_3.14.06" class="st0" points="5470.1,5665.4 5536.8,5665.4 5536.8,5630 5582.6,5630 5582.6,5647.4 5853,5647.4 
	5853,5501.5 5554.8,5501.5 5554.8,5563.4 5536.8,5563.4 5536.8,5530.5 5470.1,5530.5 "/>
<polygon id="_x30_3.14.05" class="st1" points="5807.6,5478 5807.6,5290 5567.5,5290 5567.5,5478 "/>
<polygon id="_x30_3.14.07" class="st0" points="5856.3,5912.8 5856.3,5685.4 5377.3,5685.4 5377.3,5836.1 5359.3,5836.1 
	5359.3,5912.8 "/>
<polygon id="_x30_3.14.09" class="st0" points="5292,5910.8 5292,5684.1 5239.9,5684.1 5247.1,5676.9 5211,5676.9 5211,5684.1 
	5205,5684.1 5205,5910.8 "/>
<polygon id="_x30_3.15.04" class="st0" points="5079.8,5931.4 5197.8,5931.4 5197.8,5684.1 5148.1,5684.1 5148.1,5676.9 
	5112.2,5676.9 5112.2,5684.1 5077,5684.1 5077.5,5722 "/>
<polygon id="_x30_3.15.18" class="st0" points="5068.5,5945.1 5068.5,5681.1 5064.3,5685.4 5064.3,5676.9 4986.3,5676.9 
	4986.3,5685.4 4603.5,5685.4 4595,5676.9 4523,5676.9 4523,5685.4 4516.5,5685.4 4516.5,5945.1 4688.6,5945.1 "/>
<polygon id="_x30_3.13.02" class="st0" points="4880.1,4527.9 4880.1,4462.4 4838.8,4462.4 4775.2,4425.7 4771.6,4432 4667.7,4372 
	4671.2,4365.9 4670.5,4365.2 4634.1,4344.2 4607.7,4389.8 4605.7,4391.4 4602.7,4393.1 4598.5,4393.8 4592.7,4392.8 4585.1,4388.4 
	4582,4383 4581.1,4377.9 4581.4,4375.2 4582,4372.6 4583.1,4370.2 4584.6,4367.9 4586.4,4366 4588.5,4364.4 4590.9,4363.1 
	4593.4,4362.3 4596.1,4361.9 4598.7,4361.9 4601.4,4362.4 4603.9,4363.3 4606.2,4364.7 4608.3,4366.3 4610,4368.4 4611.4,4370.6 
	4625.5,4346.2 4581.9,4321 4589.7,4307.4 4564.5,4292.8 4540.5,4334.4 4443.3,4431.6 4724,4496.9 4724,4527.9 "/>
<polygon id="_x30_3.14.02" class="st0" points="4467.7,4818.4 4515.7,4818.4 4515.7,4804.5 4534.9,4804.5 4534.9,4777 4572.8,4777 
	4572.8,4804.5 4598.2,4804.5 4598.2,4818.4 4652.2,4818.4 4652.2,4804.5 4681.9,4804.5 4681.9,4777 4712.6,4777 4712.6,4656.7 
	4435.3,4656.7 4435.3,4653.6 4401.2,4653.6 4401.2,4648.3 4399,4648.3 4399,4639.9 4351,4639.9 4348.8,4648.1 4348.8,4653.6 
	4315.4,4653.6 4315.4,4656.7 4267.4,4656.7 4267.4,4777 4315.4,4772.8 4315.4,4804.5 4339.3,4804.5 4339.3,4818.4 4391.7,4818.4 
	4391.7,4804.5 4467.7,4804.5 "/>
<polygon id="_x30_3.21.03" class="st0" points="4486.5,5927.1 4486.5,5649.3 4517.3,5649.3 4517.3,5676.9 4640.6,5676.9 
	4640.6,5647.4 4712.6,5647.4 4712.6,5232.4 4097.8,5232.4 4097.8,4704.6 4258.3,4704.6 4258.3,4470.6 4235.6,4431.3 4196.9,4481.7 
	3916.3,4643.7 3759.8,4685.7 3438.6,4685.7 3438.6,4814.4 3804.6,4814.4 3949.1,5353.3 3486.5,5665.4 3400.5,5665.4 3400.5,5681.4 
	1407.6,5673.7 1408.8,5607.3 1323.3,5607.3 1322.7,5377.8 1408.4,5375.6 1408.5,5231.4 1556.1,4680.4 1399.3,4638.3 1118.2,4476 
	1064.2,4422 1040.9,4445.4 1040.9,4679.4 1196.7,4769.4 1196.7,5069.4 1229.6,5069.4 1229.6,5231.4 297,5231.4 297,5368.3 
	192.2,5368.3 192.2,5429.6 358,5429.6 358,5303.3 364.9,5303.3 364.9,5438.1 246.8,5438.1 246.8,5546.1 330.8,5546.1 330.8,5514 
	364.9,5514 364.9,5546.1 797.9,5546.1 797.9,5514 832.8,5514 832.8,5743.8 1120.5,5743.8 1120.5,5927.1 3443.2,5927.1 "/>
<polygon id="_x30_3.15.02" class="st0" points="4580.6,5232.4 4580.6,5225 4712.6,5225 4712.6,5073.9 4613.1,5073.9 4613.1,5088.4 
	4421.1,5088.4 4421.1,5125.8 4416,5125.8 4416,5161.8 4421.1,5161.8 4421.1,5194.4 4443.2,5194.4 4443.2,5225 4540.4,5225 
	4540.4,5232.4 "/>
<polygon id="_x30_3.15.01" class="st0" points="4266.8,5232.4 4266.8,5225.4 4415.1,5225.4 4415.1,5088.4 4267.4,5088.4 
	4267.4,4704.6 4097.8,4704.6 4097.8,5232.4 "/>
<polygon id="_x30_3.14.01" class="st0" points="4645.4,4647.7 4645.4,4568.7 4464.4,4526.6 4464.4,4647.7 "/>
<polygon id="_x30_3.16.01" class="st0" points="3711.4,4935.1 3827.3,4935.1 3795.8,4817.6 3756.5,4817.6 3756.5,4814.4 
	3720.4,4814.4 3720.4,4817.6 3711.4,4817.6 "/>
<polygon id="_x30_3.16.02" class="st0" points="3796.1,5381.9 3926.7,5346.9 3851.9,5067.9 3841.7,5067.9 3841.7,5051.9 
	3847.7,5051.9 3818.2,4941.8 3704.2,4941.8 3704.2,4841.9 3362.5,4841.9 3362.5,4903.1 3645,4903.1 3645,5051.9 3776.7,5051.9 
	3776.7,5067.9 3752,5067.9 3752,5284.5 3770,5284.5 "/>
<polygon id="_x30_3.17.01" class="st0" points="3689.4,5221.4 3726.9,5221.4 3726.9,5214.6 3732.8,5214.6 3732.8,5067.9 
	3638.6,5067.9 3638.6,5003.8 3592.4,5003.8 3592.4,4909.8 3362.5,4909.8 3362.5,4950.5 3354.7,4950.5 3354.7,4986.6 3361.8,4986.6 
	3361.8,5214.6 3456.5,5214.6 3456.5,5181.4 3480.5,5181.4 3480.5,4982.4 3487.2,4982.4 3487.2,5181.4 3661.6,5181.4 3661.6,5197.4 
	3677.9,5197.4 3677.9,5214.6 3689.4,5214.6 "/>
<polygon id="_x30_3.25.03" class="st0" points="1511.6,5668.1 1511.6,5314.1 1481.3,5314.1 1481.3,5308.1 1445.3,5308.1 
	1445.3,5314.1 1415.6,5314.1 1415.6,5668.1 "/>
<path id="_x30_3.24.02" class="st0" d="M1686.3,5313.5v-6h23v-52.6h7.4v-36h-7.4v-12.5h228v-222h5.7v-38.7h-5.7v-36h-153.8v58.1h-58
	l-69.9,260.8H1636v-12l-54.5-14.6l-11,41.1l-126.1-33.8l-6.6,24.6l-17.4-4.7v21.7h-12v35.4h9.7v21.1h229.3v6h38.9V5313.5z
	 M1820.5,5133.6v-132.5h6.6v132.5H1820.5L1820.5,5133.6z"/>
<polygon id="_x30_3.25.01" class="st0" points="1565,5237.7 1576.9,5193.3 1637.8,5209.7 1701.6,4971.7 1641.4,4955.6 
	1641.4,4949.6 1662.8,4955.3 1676.7,4903.1 1937.3,4903.1 1937.3,4898 1943,4898 1943,4861.1 1937.3,4861.1 1937.3,4842.5 
	1676.1,4842.5 1676.1,4817.3 1538.1,4817.3 1512.2,4913.7 1573.1,4930 1571.3,4936.8 1510.5,4920.5 1434.8,5202.8 "/>
<polygon id="_x30_3.26.18" class="st0" points="799.8,5754.5 799.8,5555.5 796.8,5555.5 793.3,5551.9 793.3,5546.1 718.4,5546.1 
	718.4,5552.5 324.8,5552.5 324.8,5546.1 251.4,5546.1 251.4,5552.5 245.8,5552.5 245.8,5754.5 "/>
<polygon id="_x30_3.27.02" class="st0" points="53.3,5756.8 236.8,5756.8 236.8,5480.8 246.8,5480.8 246.8,5444.8 236.8,5444.8 
	236.8,5437.5 53.3,5437.5 "/>
<polygon id="_x30_3.27.04" class="st0" points="192.2,5429.6 192.2,5362.3 253.3,5362.3 253.3,5231.4 192.2,5231.4 192.2,5225.1 
	311.6,5225.1 311.6,5076.5 71.6,5076.5 71.6,5429.6 "/>
<polygon id="_x30_3.27.05" class="st0" points="313.9,5070.9 313.9,4934.9 223.9,4934.9 223.9,4928.3 313.9,4928.3 313.9,4712.5 
	204.8,4712.5 204.8,4597.4 72.2,4597.4 72.2,5070.9 "/>
<polygon id="_x30_3.26.01" class="st0" points="1126.3,5078.1 1126.3,5069.4 1196.7,5069.4 1196.7,4769.4 1041.5,4679.8 
	1041.5,4708.5 1050,4717 1050,5069.4 1090.3,5069.4 1090.3,5078.1 "/>
<polygon id="_x30_3.25.02" class="st0" points="1126,5231.4 1126,5224.1 1223.7,5224.1 1223.7,5110.7 1194,5110.7 1194,5078.6 
	1083.1,5078.6 1083.1,5224.1 1090.7,5224.1 1090.7,5231.4 "/>
<polygon id="_x30_3.26.02" class="st0" points="990.1,5216.3 990.1,5179.6 1058.8,5179.6 1058.8,5083.6 954,5083.6 954,5089.1 
	948,5089.1 948,5131.2 954,5131.2 954,5216.3 "/>
<polygon id="_x30_3.26.04" class="st0" points="863.7,5231.4 863.7,5224.1 869.9,5224.1 869.9,5194.3 896.8,5194.3 896.8,5224.1 
	946.9,5224.1 946.9,5079 717.9,5079 717.9,5161.2 780.8,5224.1 820.3,5224.1 820.3,5231.4 "/>
<polygon id="_x30_3.27.01" class="st0" points="1038.5,4811.8 1038.5,4778.4 1032,4778.4 1032,4646.4 849.8,4646.4 849.8,4656.1 
	807.8,4656.1 818.7,4811.8 952.3,4811.8 "/>
<polygon id="_x30_3.28.02" class="st0" points="194,4588.1 194,4456.9 356,4456.9 356,4384.9 60,4384.9 60,4588.1 "/>
<polyline id="_x30_3.29.02" class="st0" points="60,4073.4 241.9,4073.4 241.9,3826 174,3826 174,3820.4 138,3820.4 138,3826 
	60,3826 "/>
<path id="_x30_3.10.10" class="st0" d="M781.1,5231.4l-69.7-69.7v-210l105.9-138L806.5,4658v-162l237.6-55.3l21.1-21.1v-16.5
	l-177-230.7l-174-301.4L679,3739.4v-960h11.3v-126l99.1-171.7l-54.6-31.5l104.8-181.4l55.6,32.1l59.1-102.3l21.2,12.3l70.7-92.1
	l-46.2-46.2l-192.8-44.9V1866h41.3v-125.3l-135.1-176.1v-119.7l1.5-1.5v-463h-390v-6h-73.5v6h-42v-6h-30v7.4h-6v61.2h-10v35.5h10v6
	h192v133.9H358v-124.1H193v60h104v136.9h68.3v273.2h16.4v7.4h-36.4v144.6h36.4v7.9h-42v48h25.6v37.6h-84.2v126H358v-67h7.3V2139h90
	v234h-90v337H188v-5.6h-37v5.6H61.7v1110h302.4v337.8l133.1-0.6V4409H356v43.6h11.7v58.3h-6v38.2l3.2,3.2v93.6h-7.1v-51.8H212v118.4
	h60v-57.1h7.3v50.5h85.6v44.4h-19.6v43.1h37v12.8h-42v144h42v8h-17.4v273.3h416.2V5231.4z M186.1,3500.2v-471.7l219,30.8v414
	l-75.5,9.3L186.1,3500.2L186.1,3500.2z"/>
<polygon id="_x30_3.29.01" class="st0" points="497.3,4409 497.3,4157.2 140.6,4158.8 140.5,4114.1 308.4,4114.1 308.4,4104.3 
	356,4104.6 356.5,3962.3 320.5,3962.5 320.3,3954.4 356.3,3954.1 356,3826.1 248.5,3826.1 248.5,4073.4 60,4073.4 60,4157.4 
	60,4379 361.7,4379 361.7,4409 "/>
<polygon id="_x30_3.33.02" class="st0" points="365.3,2568.5 365.3,2424.5 309.3,2424.5 309.3,2372.9 453.3,2372.9 453.3,2139.9 
	363.3,2139.9 363.3,2152.6 60,2152.6 60,2568.5 "/>
<polygon id="_x30_3.34.01" class="st0" points="329.6,2063.4 356.8,2063.4 356.8,2021.6 365.3,2021.6 365.3,1980.9 356.8,1980.9 
	356.8,1943.4 200.6,1943.4 200.6,2063.4 "/>
<polygon id="_x30_3.34.02" class="st0" points="329.6,2145.4 356.6,2145.4 356.6,2121.4 365.3,2121.4 365.3,2077.8 356.6,2077.8 
	356.6,2071.3 192,2071.3 192,1943.7 59.1,1943.7 59.1,2145.4 "/>
<polygon id="_x30_3.35.02" class="st0" points="280.6,1934.9 280.6,1869.1 272.6,1869.1 272.6,1803.6 312.6,1803.6 312.6,1586.6 
	223.7,1586.6 223.7,1581.6 312.6,1581.6 312.6,1445.6 72.2,1445.6 72.2,1920.9 206.7,1920.9 206.7,1802.9 211.4,1802.9 
	211.4,1934.9 "/>
<polygon id="_x30_3.35.03" class="st0" points="311.9,1438.4 311.9,1306.4 192.3,1306.4 192.3,1297.8 254.3,1297.8 254.3,1161.1 
	192.3,1161.1 192.3,1093.9 72.2,1093.9 72.2,1429.7 249.2,1429.7 257.9,1438.4 "/>
<polygon id="_x30_3.35.04" class="st0" points="163.2,1086.6 163.2,981.9 71.6,981.9 71.6,1086.6 "/>
<polygon id="_x30_3.36.02" class="st0" points="952.3,1444.1 955,1444.1 955,1438.8 961.6,1438.8 961.6,1402.8 955,1402.8 
	955,1298.6 949,1298.6 949,1287 911.1,1287 911.1,1298.6 872.2,1298.6 872.2,1287 824.2,1287 824.2,1298.6 820.2,1298.6 
	820.2,1444.1 "/>
<polygon id="_x30_3.36.03" class="st0" points="1040.5,1444.1 1040.5,1350.8 961.6,1350.8 961.6,1444.1 "/>
<polygon id="_x30_3.36.04" class="st0" points="1127.5,1449.9 1127.5,1443.6 1217.3,1443.6 1217.3,1298.6 1127.5,1298.6 
	1127.5,1287 1089.8,1287 1089.8,1298.6 1047.8,1298.6 1047.8,1443.6 1089.8,1443.6 1089.8,1449.9 "/>
<polygon id="_x30_3.37.01" class="st0" points="1677.8,1705.5 1677.8,1680.8 1937.3,1680.8 1937.3,1624.2 1933,1619.9 1675,1619.9 
	1661,1567.8 1642.3,1572.8 1640.5,1566 1701.9,1549.6 1638.6,1313.4 1577.8,1329.7 1565.6,1284.2 1434,1319.5 1509.5,1601.1 
	1570.9,1584.7 1572.7,1591.4 1511.3,1607.9 1537.4,1705.5 1575,1705.5 "/>
<polygon id="_x30_3.37.02" class="st0" points="1937.3,1612.9 1937.3,1318.9 1709.3,1318.9 1709.3,1215.9 1681.7,1215.9 
	1681.7,1209.9 1645.7,1209.9 1645.7,1215.9 1484.2,1215.9 1484.2,1204.2 1446.3,1204.2 1446.3,1215.9 1415.9,1215.9 1415.9,1234.9 
	1406.9,1234.9 1406.9,1272.4 1415.9,1272.4 1415.9,1292.9 1439.1,1286.7 1444.7,1307.7 1569.2,1274.3 1581.1,1318.9 1635.6,1304.3 
	1635.6,1298.3 1652.9,1293.6 1722.1,1551.6 1784.1,1551.6 1784.1,1612.9 "/>
<polygon id="_x30_3.37.04" class="st0" points="1484.2,1210 1508.2,1210 1508.2,856 1418.2,856 1418.2,1208.6 1446.3,1208.6 
	1446.3,1204.2 1484.2,1204.2 "/>
<polygon id="_x30_3.37.03" class="st0" points="2074.1,1617.8 2074.1,1114.4 1954.1,1114.4 1954.1,1235.2 1924.1,1235.2 
	1924.1,1204.2 1717.7,1204.2 1717.7,1270.2 1709.3,1270.2 1709.3,1305.6 1717.7,1305.6 1717.7,1311.6 1937.3,1311.6 1937.3,1278.9 
	1942.4,1278.9 1942.4,1530.9 1937.3,1530.9 1937.3,1571.4 1943.3,1571.4 1943.3,1591.6 2019.4,1591.6 2019.4,1571.4 2043.5,1571.4 
	2043.5,1617.8 "/>
<polygon id="_x30_3.35.05" class="st0" points="236.8,974 236.8,810.4 53.3,810.4 53.3,974 "/>
<polygon id="_x30_3.36.08" class="st0" points="797.3,971.4 797.3,767.4 245.3,767.4 245.3,971.4 329.6,971.4 "/>
<polygon id="_x30_3.06.08" class="st0" points="5855.3,580.8 5855.3,412.8 5758,412.8 5758,580.8 "/>
<polygon id="_x30_3.06.07" class="st0" points="5750.8,584.8 5750.8,412.8 5616.8,412.8 5616.8,512.2 5522.8,512.2 5522.8,584.8 "/>
<polygon id="_x30_3.06.09" class="st0" points="5633.3,397.9 5633.3,263.1 5519.3,263.1 5519.3,397.9 "/>
<polygon id="_x30_3.06.10" class="st0" points="5732,325.5 5732,317.4 6094.5,317.4 6094.5,158.6 5644.5,158.6 5644.5,317.4 
	5694,317.4 5694,325.5 "/>
<polygon id="_x30_3.06.11" class="st0" points="5608.3,504.3 5608.3,412.8 5569.3,412.8 5569.3,397.9 5542.1,397.9 5527.3,412.8 
	5518.3,412.8 5518.3,504.3 "/>
<polygon id="_x30_3.09.01" class="st0" points="6075.6,2867.4 6075.6,2861.4 6099,2861.4 6099,2726 6054.4,2718.2 6054.4,2587.1 
	6098.8,2587.1 6098.8,2541.4 5912.6,2541.4 5912.6,2569.6 5898,2569.6 5898,2839.3 5934,2845 "/>
<polygon id="_x30_3.07.01" class="st0" points="4610,2308.7 4640.5,2291.1 4642,2292.5 4686.1,2267 4677.1,2251.4 4793.6,2184.2 
	4808.6,2210.2 4850.2,2186.2 4834.7,2159.4 4837.5,2159.4 4837.5,2147.4 4841.7,2143.1 4868.8,2143.1 4868.8,2115.6 4841.7,2115.6 
	4841.7,1994.9 4785.8,1994.9 4785.8,1988.9 4743.8,1988.9 4743.8,1995.7 4726,1995.7 4726,2025.7 4443.7,2091.5 4540.5,2188.3 "/>
<polygon id="_x30_3.07.02" class="st0" points="4857.8,2522.4 5089.3,2416.9 4930.1,2141.2 4880.9,2179 4880.9,2182.3 
	4855.7,2196.8 4849.7,2186.4 4809,2209.9 4794,2183.9 4677.1,2251.4 4686.1,2267 4647.4,2289.4 4649.5,2293.1 4612.5,2314.4 
	4716.5,2494.6 4794.5,2449.6 4810.8,2468.4 "/>
<polygon id="_x30_3.08.01" class="st0" points="6096.3,2541.4 6096.3,2289.1 6060.3,2289.1 6058.3,2291.1 5984.8,2291.1 
	5984.8,2541.4 "/>
<polygon id="_x30_3.11.01" class="st0" points="5893.7,3949.3 6053.9,3925.4 6053.9,3807.6 6095.4,3801.4 6095.4,3647.6 
	6079.8,3647.6 6079.8,3654.7 5994.1,3668.3 5994.1,3669.2 5893.7,3684.2 5893.7,3862.8 "/>
<polygon id="_x30_3.13.07" class="st0" points="6779.6,5571.6 6779.6,5466.5 6614,5466.5 6614,5530.4 6626,5530.4 "/>
<polygon id="_x30_3.13.08" class="st0" points="6857.3,5306.4 6857.3,5180.4 6617.3,5180.4 6617.3,5306.4 "/>
<polygon id="_x30_3.13.09" class="st0" points="7331.3,6209.4 7331.3,5441.4 7103.3,5441.4 7103.3,6209.4 "/>
<polygon id="_x30_3.13.03" class="st1" points="5849.7,5281.1 5849.9,4901.4 5790.1,4901.4 5789.5,4848.5 5849.7,4848.7 
	5848.6,4699.1 5101.2,4699.1 5101.2,5281.1 5335.6,5281.1 "/>
<polygon id="_x30_3.17.02" class="st0" points="3237.8,5225.4 3271.4,5225.4 3271.4,5196.9 3295.8,5196.9 3295.8,5211.7 
	3354.7,5211.7 3354.7,4899.7 3237.8,4899.7 "/>
<polygon id="_x30_3.24.01" class="st0" points="1958.3,5408.4 2074.1,5408.4 2074.1,4905 2051.8,4905 2051.8,4898 2043.8,4898 
	2043.8,4948.9 2018.7,4948.9 2018.7,4933.4 1942.4,4933.4 1942.4,5242.4 1935.7,5242.4 1935.7,5212.4 1717.7,5212.4 1717.7,5320.3 
	1916.3,5320.3 1916.3,5377.4 1958.3,5377.4 "/>
<polygon id="_x30_3.31.02" class="st0" points="185.1,3497.2 404.1,3470.3 404.1,3062.3 185.1,3031.5 185.1,3398 "/>
<polygon id="_x30_3.33.01" class="st0" points="358,2703.6 358,2575.1 322.2,2575.1 322.2,2568.5 60,2568.5 60,2703.6 "/>
<polygon id="_x30_3.35.01" class="st0" points="965.7,1883.4 965.7,1868.5 1004.4,1868.5 1004.4,1746.1 848.4,1746.1 848.4,1862.5 
	894,1862.5 894,1868.5 915.5,1868.5 915.5,1883.4 952.3,1883.4 "/>
<polygon id="_x30_3.36.01" class="st0" points="1042.9,1842.2 1197.5,1753 1197.5,1453 1042.9,1453 1042.9,1538.7 "/>
<polygon id="_x30_3.28.01" class="st0" points="356.6,4586.9 356.6,4549.1 361.7,4549.1 361.7,4512.3 356.6,4512.3 356.6,4466.3 
	200.6,4466.3 200.6,4586.9 329.6,4586.9 "/>
<rect id="_x30_2.26.47" x="959.9" y="1299.1" class="st2" width="78.5" height="47.5"/>
<rect id="_x30_2.26.48" x="1020.8" y="5184.5" class="st2" width="54.6" height="38.8"/>
<path id="_x30_3.00.02" d="M3794.7,1074.4l-308.4-208h-90v6h-38v-15H1711.1v14.4h-20.4v-14.4h-87.2v14.4h-70.1v15h-15.2v301.4h15.2
	v16h70.8v5.1h87.1v-5.1h231.6v-58.8h31.2v-31h120v509.8h-136.8v87.2h-59v180h47v-54.3h400.6l9.6,54.3h216v-72h205.8v72h186v-72h46.9
	v-60.3h182.6v60.3h207.7v72h56.4v-178.8h-81.7v-94.8h-114.4v-318.4h223v36h192.1v-36h78v-78l-26.4-17.8L3794.7,1074.4z
	 M2754.8,1208.6l3.4,393.2l-205-1.7l-2.5-391.5h-177.2l-0.8-210.9l564.5,2.5l-1.7,208.4L2754.8,1208.6L2754.8,1208.6z"/>
<polygon id="_x30_3.00.01" points="2372.6,997.6 2932,1000.1 2935.4,1208.6 2754.8,1208.6 2758.2,1601.8 2553.2,1600.1 
	2550.6,1208.6 2373.4,1208.6 "/>
<polygon id="_x30_3.09.03" points="5898,2839.3 5898,3063.1 6099,3063.1 6099,2867.4 "/>
<polygon id="_x30_3.11.03" points="5893.7,3684.2 5893.7,3456.9 6095.4,3456.9 6095.4,3640.6 "/>
<rect id="_x30_3.14.03" x="5076.9" y="5283.4" class="st3" width="121.6" height="194.6"/>
<polygon id="_x30_3.13.04" class="st1" points="5849.7,4848.7 5789.5,4848.5 5790.1,4901.4 5849.9,4901.4 "/>
<path id="_x30_3.21.02" class="st0" d="M3748.5,5372l-196,132.2l-37.7-55.8l218-147.1v-79.9H3646v-33h-174v37h-234.2v-325.7h118.7
	v-63.8h352.1v-21.5h-270v-113h-265.8v60.7h-179.7v-60.7h-46.3v-12h-514.7v-9h-876l-34.7,129.6H1943v88h108.8v7h22.3v503.4h-115.8
	v55.5h-42v-143.6h-225v-6.8h-87.8v6.8h-70.1v15h-14.5v68h14.5v25.5h-14.5v113.8h14.5v24.2h-14.5v67.7h14.5v15.9h70.8v15h86.5v-15
	h355.6v15H2164v16h84v-16h80.3v-15h660.5v15h77.7v16h84v-16h118.4v-15h127.4v8h91.8l42.8-28.9l-34.8-51.5l216-145.6l34.7,51.5
	l53.1-35.8L3748.5,5372z M2373.4,5524.3v-210.1l178.9-8.4l3.4-382.2h204.8l2.5,390.6l171.5-0.8l0.8,210.1L2373.4,5524.3z"/>
<polygon id="_x30_3.21.01" class="st0" points="2555.7,4923.6 2552.3,5305.8 2373.4,5314.3 2373.4,5524.3 2935.4,5523.5 
	2934.5,5313.4 2763,5313.4 2760.5,4923.6 "/>
<rect id="_x30_3.25.04" x="1322.7" y="5377.8" class="st0" width="85.7" height="226.1"/>
<rect id="_x30_3.37.05" x="1324.4" y="916.6" class="st0" width="82.5" height="227.8"/>
<rect id="_x30_3.ME.A" x="4281.2" y="1452.4" class="st2" width="424.4" height="144.3"/>
<rect id="_x30_3.ME.B" x="4280.3" y="4924.4" class="st2" width="425.3" height="149.5"/>
<rect id="_x30_3.ME.C" x="736.6" y="4962.4" class="st2" width="290.3" height="87.8"/>
<polygon id="_x30_3.ME.D" class="st2" points="736.6,1472.7 1012.5,1472.7 1012.5,1724.1 864.8,1724.1 736.6,1562.1 "/>
<rect id="_x30_3.EL.A" x="4287.1" y="1606.8" class="st2" width="257.6" height="89.4"/>
<rect id="_x30_3.EL.B" x="4294.9" y="4822.1" class="st2" width="394.3" height="90.6"/>
<rect id="_x30_3.EL.C" x="896.3" y="4817.3" class="st2" width="134.4" height="123.5"/>
<polygon id="_x30_3.EL.D" class="st2" points="855.5,1883.4 855.5,1983.1 1029.9,2023.3 1029.9,1883.4 "/>
</svg>
